#File written by LIBUNFOLD3D. Compilation :Jun 29 2015,14:16:05
mtllib 12kongxinyuan.mtl
#begin vertices
v 1.57 5.898 1.28125
v 1.57 5.898 1.28125
v 1.57 5.898 1.28125
v 1.185 5.898 1.28125
v 1.185 5.898 1.28125
v 1.185 5.898 1.28125
v 1.094506 5.898 0.82711
v 1.094506 5.898 0.82711
v 0.837921 5.898 0.443329
v 0.837921 5.898 0.443329
v 0.45414 5.898 0.186744
v 0.45414 5.898 0.186744
v 0 5.898 0.09625
v 0 5.898 0.09625
v -0.45414 5.898 0.186744
v -0.45414 5.898 0.186744
v -0.837921 5.898 0.443329
v -0.837921 5.898 0.443329
v -1.094506 5.898 0.82711
v -1.094506 5.898 0.82711
v -1.185 5.898 1.28125
v -1.185 5.898 1.28125
v -1.185 5.898 1.28125
v -1.57 5.898 1.28125
v -1.57 5.898 1.28125
v -1.57 5.898 1.28125
v -1.492856 5.898 0.795163
v -1.492856 5.898 0.795163
v -1.269868 5.898 0.358032
v -1.269868 5.898 0.358032
v -0.923218 5.898 0.011382
v -0.923218 5.898 0.011382
v -0.486087 5.898 -0.211606
v -0.486087 5.898 -0.211606
v 0 5.898 -0.28875
v 0 5.898 -0.28875
v 0.486087 5.898 -0.211606
v 0.486087 5.898 -0.211606
v 0.923218 5.898 0.011382
v 0.923218 5.898 0.011382
v 1.269868 5.898 0.358032
v 1.269868 5.898 0.358032
v 1.492856 5.898 0.795163
v 1.492856 5.898 0.795163
v -1.57 -1.517 1.28125
v -1.57 -1.517 1.28125
v -1.57 -1.517 1.28125
v -1.492856 -1.517 0.795163
v -1.492856 -1.517 0.795163
v -1.269868 -1.517 0.358032
v -1.269868 -1.517 0.358032
v -0.923218 -1.517 0.011382
v -0.923218 -1.517 0.011382
v -0.486087 -1.517 -0.211606
v -0.486087 -1.517 -0.211606
v 0 -1.517 -0.28875
v 0 -1.517 -0.28875
v 0.486087 -1.517 -0.211606
v 0.486087 -1.517 -0.211606
v 0.923218 -1.517 0.011382
v 0.923218 -1.517 0.011382
v 1.269868 -1.517 0.358032
v 1.269868 -1.517 0.358032
v 1.492856 -1.517 0.795163
v 1.492856 -1.517 0.795163
v 1.57 -1.517 1.28125
v 1.57 -1.517 1.28125
v 1.57 -1.517 1.28125
v -1.185 -1.517 1.28125
v -1.185 -1.517 1.28125
v -1.185 -1.517 1.28125
v -1.094506 -1.517 0.82711
v -1.094506 -1.517 0.82711
v -0.837921 -1.517 0.443329
v -0.837921 -1.517 0.443329
v -0.45414 -1.517 0.186744
v -0.45414 -1.517 0.186744
v 0 -1.517 0.09625
v 0 -1.517 0.09625
v 0.45414 -1.517 0.186744
v 0.45414 -1.517 0.186744
v 0.837921 -1.517 0.443329
v 0.837921 -1.517 0.443329
v 1.094506 -1.517 0.82711
v 1.094506 -1.517 0.82711
v 1.185 -1.517 1.28125
v 1.185 -1.517 1.28125
v 1.185 -1.517 1.28125
#end vertices

#begin 88 textures vertices 
vt 0.08182131 0.9258974 0
vt 0.03476699 0.7136638 0
vt 0.890233 0.7136638 0
vt 0.1224292 0.9258974 0
vt 0.8194151 0.7136638 0
vt 0.8567315 0.7136638 0
vt 0.131974 0.877997 0
vt 0.7791203 0.7136638 0
vt 0.1590374 0.8375177 0
vt 0.7389486 0.7136638 0
vt 0.1995167 0.8104543 0
vt 0.698777 0.7136638 0
vt 0.2474171 0.8009095 0
vt 0.6584822 0.7136638 0
vt 0.2953175 0.8104543 0
vt 0.6181874 0.7136638 0
vt 0.3357968 0.8375177 0
vt 0.5780159 0.7136638 0
vt 0.3628601 0.877997 0
vt 0.5378442 0.7136638 0
vt 0.372405 0.9258974 0
vt 0.965233 0.7136638 0
vt 0.4975494 0.7136638 0
vt 0.4130129 0.9258974 0
vt 0.4621975 0.7136638 0
vt 0.9317315 0.7136638 0
vt 0.4048761 0.8746274 0
vt 0.4193704 0.7136638 0
vt 0.3813565 0.828521 0
vt 0.3766693 0.7136638 0
vt 0.3447935 0.791958 0
vt 0.3340104 0.7136638 0
vt 0.2986871 0.7684384 0
vt 0.2913094 0.7136638 0
vt 0.2474171 0.7603016 0
vt 0.2484822 0.7136638 0
vt 0.1961471 0.7684384 0
vt 0.2056551 0.7136638 0
vt 0.1500407 0.791958 0
vt 0.1629541 0.7136638 0
vt 0.1134777 0.828521 0
vt 0.1202952 0.7136638 0
vt 0.08995808 0.8746274 0
vt 0.07759414 0.7136638 0
vt 0.4621975 0.06843352 0
vt 0.9317315 0.06843352 0
vt 0.8262357 0.7761073 0
vt 0.4193704 0.06843352 0
vt 0.8180989 0.8273773 0
vt 0.3766693 0.06843352 0
vt 0.7945793 0.8734837 0
vt 0.3340104 0.06843352 0
vt 0.7580163 0.9100467 0
vt 0.2913094 0.06843352 0
vt 0.7119099 0.9335663 0
vt 0.2484822 0.06843352 0
vt 0.6606399 0.9417031 0
vt 0.2056551 0.06843352 0
vt 0.6093699 0.9335663 0
vt 0.1629541 0.06843352 0
vt 0.5632635 0.9100467 0
vt 0.1202952 0.06843352 0
vt 0.5267005 0.8734837 0
vt 0.07759414 0.06843352 0
vt 0.5031809 0.8273773 0
vt 0.03476699 0.06843352 0
vt 0.4950441 0.7761073 0
vt 0.890233 0.06843352 0
vt 0.965233 0.06843352 0
vt 0.7856278 0.7761073 0
vt 0.4975494 0.06843352 0
vt 0.7760829 0.8240077 0
vt 0.5378442 0.06843352 0
vt 0.7490196 0.864487 0
vt 0.5780159 0.06843352 0
vt 0.7085403 0.8915504 0
vt 0.6181874 0.06843352 0
vt 0.6606399 0.9010952 0
vt 0.6584822 0.06843352 0
vt 0.6127395 0.8915504 0
vt 0.698777 0.06843352 0
vt 0.5722602 0.864487 0
vt 0.7389486 0.06843352 0
vt 0.5451969 0.8240077 0
vt 0.7791203 0.06843352 0
vt 0.535652 0.7761073 0
vt 0.8194151 0.06843352 0
vt 0.8567315 0.06843352 0
#end 88 textures vertices 

#begin 88 normals 
vn 0 1 0
vn 1 0 -0
vn 0 0 1
vn 0 1 0
vn -1 0 0
vn 0 0 1
vn 0 1 0
vn -0.923646 0 0.383246
vn 0 1 0
vn -0.707107 0 0.707107
vn 0 1 0
vn -0.383246 0 0.923646
vn 0 1 0
vn 0 0 1
vn 0 1 0
vn 0.383246 0 0.923646
vn 0 1 0
vn 0.707107 0 0.707107
vn 0 1 0
vn 0.923646 0 0.383246
vn 0 1 0
vn 0 0 1
vn 1 0 0
vn 0 1 0
vn -1 0 -0
vn 0 0 1
vn 0 1 0
vn -0.950864 0 -0.30961
vn 0 1 0
vn -0.808834 0 -0.588038
vn 0 1 0
vn -0.588038 0 -0.808834
vn 0 1 0
vn -0.30961 0 -0.950864
vn 0 1 0
vn 0 0 -1
vn 0 1 0
vn 0.30961 0 -0.950864
vn 0 1 0
vn 0.588038 0 -0.808834
vn 0 1 0
vn 0.808834 0 -0.588038
vn 0 1 0
vn 0.950864 0 -0.30961
vn -1 0 -0
vn 0 0 1
vn 0 -1 0
vn -0.950864 0 -0.30961
vn 0 -1 0
vn -0.808834 0 -0.588038
vn 0 -1 0
vn -0.588038 0 -0.808834
vn 0 -1 0
vn -0.30961 0 -0.950864
vn 0 -1 0
vn 0 0 -1
vn 0 -1 0
vn 0.30961 0 -0.950864
vn 0 -1 0
vn 0.588038 0 -0.808834
vn 0 -1 0
vn 0.808834 0 -0.588038
vn 0 -1 0
vn 0.950864 0 -0.30961
vn 0 -1 0
vn 1 0 -0
vn 0 -1 0
vn 0 0 1
vn 0 0 1
vn 0 -1 0
vn 1 0 0
vn 0 -1 0
vn 0.923646 0 0.383246
vn 0 -1 0
vn 0.707107 0 0.707107
vn 0 -1 0
vn 0.383246 0 0.923646
vn 0 -1 0
vn 0 0 1
vn 0 -1 0
vn -0.383246 0 0.923646
vn 0 -1 0
vn -0.707107 0 0.707107
vn 0 -1 0
vn -0.923646 0 0.383246
vn 0 -1 0
vn -1 0 0
vn 0 0 1
#end 88 normals 

#begin 76 faces
usemtl MTL0
g 1
f 41/41/41 4/4/4 1/1/1 
f 88/88/88 3/3/3 6/6/6 
f 43/43/43 41/41/41 1/1/1 
f 64/64/64 44/44/44 2/2/2 
f 66/66/66 64/64/64 2/2/2 
f 88/88/88 68/68/68 3/3/3 
f 41/41/41 7/7/7 4/4/4 
f 87/87/87 5/5/5 8/8/8 
f 39/39/39 9/9/9 7/7/7 
f 85/85/85 8/8/8 10/10/10 
f 41/41/41 39/39/39 7/7/7 
f 87/87/87 8/8/8 85/85/85 
f 37/37/37 11/11/11 9/9/9 
f 83/83/83 10/10/10 12/12/12 
f 39/39/39 37/37/37 9/9/9 
f 85/85/85 10/10/10 83/83/83 
f 35/35/35 13/13/13 11/11/11 
f 81/81/81 12/12/12 14/14/14 
f 37/37/37 35/35/35 11/11/11 
f 83/83/83 12/12/12 81/81/81 
f 33/33/33 15/15/15 13/13/13 
f 79/79/79 14/14/14 16/16/16 
f 35/35/35 33/33/33 13/13/13 
f 81/81/81 14/14/14 79/79/79 
f 33/33/33 17/17/17 15/15/15 
f 77/77/77 16/16/16 18/18/18 
f 79/79/79 16/16/16 77/77/77 
f 31/31/31 19/19/19 17/17/17 
f 75/75/75 18/18/18 20/20/20 
f 33/33/33 31/31/31 17/17/17 
f 77/77/77 18/18/18 75/75/75 
f 29/29/29 21/21/21 19/19/19 
f 73/73/73 20/20/20 23/23/23 
f 31/31/31 29/29/29 19/19/19 
f 75/75/75 20/20/20 73/73/73 
f 27/27/27 24/24/24 21/21/21 
f 46/46/46 22/22/22 26/26/26 
f 29/29/29 27/27/27 21/21/21 
f 69/69/69 22/22/22 46/46/46 
f 73/73/73 23/23/23 71/71/71 
f 45/45/45 25/25/25 28/28/28 
f 48/48/48 28/28/28 30/30/30 
f 48/48/48 45/45/45 28/28/28 
f 50/50/50 30/30/30 32/32/32 
f 50/50/50 48/48/48 30/30/30 
f 52/52/52 32/32/32 34/34/34 
f 52/52/52 50/50/50 32/32/32 
f 54/54/54 34/34/34 36/36/36 
f 54/54/54 52/52/52 34/34/34 
f 56/56/56 36/36/36 38/38/38 
f 56/56/56 54/54/54 36/36/36 
f 58/58/58 38/38/38 40/40/40 
f 58/58/58 56/56/56 38/38/38 
f 60/60/60 40/40/40 42/42/42 
f 60/60/60 58/58/58 40/40/40 
f 62/62/62 42/42/42 44/44/44 
f 62/62/62 60/60/60 42/42/42 
f 64/64/64 62/62/62 44/44/44 
f 51/51/51 47/47/47 49/49/49 
f 70/70/70 47/47/47 51/51/51 
f 72/72/72 51/51/51 53/53/53 
f 72/72/72 70/70/70 51/51/51 
f 74/74/74 53/53/53 55/55/55 
f 74/74/74 72/72/72 53/53/53 
f 76/76/76 55/55/55 57/57/57 
f 76/76/76 74/74/74 55/55/55 
f 78/78/78 57/57/57 59/59/59 
f 78/78/78 76/76/76 57/57/57 
f 82/82/82 59/59/59 61/61/61 
f 80/80/80 78/78/78 59/59/59 
f 82/82/82 80/80/80 59/59/59 
f 84/84/84 61/61/61 63/63/63 
f 84/84/84 82/82/82 61/61/61 
f 86/86/86 63/63/63 65/65/65 
f 86/86/86 84/84/84 63/63/63 
f 86/86/86 65/65/65 67/67/67 
#end 76 faces

#begin properties
#U3DPROPERTIES_00 table {Mesh table {SymPlane table {Point vector3d 0 0 0  Normal vector3d 1 0 0  Threshold double 0.01 Enabled bool false } Maps table {Density table {PrimType string "Polygon" Size int 1 DefaultValue double 1 ScaleType string "Log" MinValue double 0.1 MaxValue double 4 Data doubles { r 76 1 } } Pin table {PrimType string "Vertex" Size int 1 DefaultValue double 0 ScaleType string "Normalized" MinValue double 0 MaxValue double 1 Data doubles { r 88 0 } } Protect table {PrimType string "Vertex" Size int 1 DefaultValue double 0 ScaleType string "Normalized" MinValue double -1 MaxValue double 1 Data doubles { r 88 0 } } } } }
#end properties

#begin 0 fatal error vertex (that Unfold3D cannot handle)
#end 0 fatal error vertex (that Unfold3D cannot handle)

#begin 0 error vertex
#end 0 error vertex
