#File written by LIBUNFOLD3D. Compilation :Jun 29 2015,14:16:05
mtllib banyuanzhuti.mtl
#begin vertices
v -0 1.98675 1.98675
v -0 1.98675 1.98675
v 0.885033 1.98675 1.886913
v 0.885033 1.98675 1.886913
v 1.724651 1.98675 1.592925
v 1.724651 1.98675 1.592925
v 2.47756 1.98675 1.119749
v 2.47756 1.98675 1.119749
v 3.106487 1.98675 0.490825
v 3.106487 1.98675 0.490825
v 3.579668 1.98675 -0.262084
v 3.579668 1.98675 -0.262084
v 3.873661 1.98675 -1.101707
v 3.873661 1.98675 -1.101707
v 3.9735 1.98675 -1.98675
v 3.9735 1.98675 -1.98675
v 3.9735 1.98675 -1.98675
v 3.9735 -1.98675 -1.98675
v 3.9735 -1.98675 -1.98675
v 3.9735 -1.98675 -1.98675
v 3.873663 -1.98675 -1.101717
v 3.873663 -1.98675 -1.101717
v 3.579675 -1.98675 -0.262099
v 3.579675 -1.98675 -0.262099
v 3.106499 -1.98675 0.49081
v 3.106499 -1.98675 0.49081
v 2.477575 -1.98675 1.119737
v 2.477575 -1.98675 1.119737
v 1.724666 -1.98675 1.592918
v 1.724666 -1.98675 1.592918
v 0.885043 -1.98675 1.886911
v 0.885043 -1.98675 1.886911
v -0 -1.98675 1.98675
v -0 -1.98675 1.98675
v -0.885033 -1.98675 1.886913
v -0.885033 -1.98675 1.886913
v -1.724651 -1.98675 1.592925
v -1.724651 -1.98675 1.592925
v -2.47756 -1.98675 1.119749
v -2.47756 -1.98675 1.119749
v -3.106487 -1.98675 0.490825
v -3.106487 -1.98675 0.490825
v -3.579668 -1.98675 -0.262084
v -3.579668 -1.98675 -0.262084
v -3.873661 -1.98675 -1.101707
v -3.873661 -1.98675 -1.101707
v -3.9735 -1.98675 -1.98675
v -3.9735 -1.98675 -1.98675
v -3.9735 -1.98675 -1.98675
v -3.9735 1.98675 -1.98675
v -3.9735 1.98675 -1.98675
v -3.9735 1.98675 -1.98675
v -3.873663 1.98675 -1.101717
v -3.873663 1.98675 -1.101717
v -3.579675 1.98675 -0.262099
v -3.579675 1.98675 -0.262099
v -3.106499 1.98675 0.49081
v -3.106499 1.98675 0.49081
v -2.477575 1.98675 1.119737
v -2.477575 1.98675 1.119737
v -1.724666 1.98675 1.592918
v -1.724666 1.98675 1.592918
v -0.885043 1.98675 1.886911
v -0.885043 1.98675 1.886911
#end vertices

#begin 64 textures vertices 
vt 0.615712 0.4999998 0
vt 0.3000004 0.0657118 0
vt 0.6157119 0.5602002 0
vt 0.3598214 0.0724601 0
vt 0.6157118 0.6203298 0
vt 0.4165726 0.0923313 0
vt 0.6157118 0.6804359 0
vt 0.4674631 0.1243142 0
vt 0.6157117 0.7405544 0
vt 0.5099733 0.1668244 0
vt 0.6157116 0.8006607 0
vt 0.5419564 0.2177149 0
vt 0.6157116 0.8607907 0
vt 0.5618278 0.2744665 0
vt 0.6157115 0.9209918 0
vt 0.568576 0.3342882 0
vt 0.03142399 0.634288 0
vt 0.8842875 0.9209921 0
vt 0.03142399 0.365712 0
vt 0.5703391 0.6653484 0
vt 0.8842876 0.8607917 0
vt 0.5571246 0.7256403 0
vt 0.8842876 0.8006621 0
vt 0.53705 0.7827386 0
vt 0.8842877 0.740556 0
vt 0.5047918 0.833922 0
vt 0.8842878 0.6804375 0
vt 0.461948 0.8766568 0
vt 0.8842879 0.6203312 0
vt 0.4106823 0.9087845 0
vt 0.8842879 0.5602012 0
vt 0.3535326 0.9287135 0
vt 0.884288 0.5000001 0
vt 0.2996546 0.9353423 0
vt 0.8842881 0.4397997 0
vt 0.2394496 0.9284729 0
vt 0.8842881 0.3796701 0
vt 0.1823513 0.9083983 0
vt 0.8842882 0.319564 0
vt 0.1311679 0.8761401 0
vt 0.8842883 0.2594455 0
vt 0.08843322 0.8332963 0
vt 0.8842883 0.1993392 0
vt 0.05630553 0.7820306 0
vt 0.8842884 0.1392092 0
vt 0.03637653 0.7248809 0
vt 0.8842885 0.07900815 0
vt 0.568576 0.365712 0
vt 0.02966084 0.6646578 0
vt 0.6157124 0.07900785 0
vt 0.03142401 0.3342874 0
vt 0.568576 0.634288 0
vt 0.6157124 0.1392082 0
vt 0.03817226 0.2744665 0
vt 0.6157123 0.1993378 0
vt 0.05804352 0.2177152 0
vt 0.6157122 0.2594439 0
vt 0.09002641 0.1668248 0
vt 0.6157122 0.3195624 0
vt 0.1325366 0.1243145 0
vt 0.6157121 0.3796687 0
vt 0.1834271 0.0923315 0
vt 0.615712 0.4397987 0
vt 0.2401787 0.07246 0
#end 64 textures vertices 

#begin 64 normals 
vn -0 0 1
vn 0 1 0
vn 0.222703 0 0.974886
vn 0 1 0
vn 0.434053 0 0.900887
vn 0 1 0
vn 0.623548 0 0.781785
vn 0 1 0
vn 0.781782 0 0.623551
vn 0 1 0
vn 0.900886 0 0.434057
vn 0 1 0
vn 0.974886 0 0.222706
vn 0 1 0
vn 1 0 0
vn 0 1 0
vn -0 0 -1
vn 1 0 0
vn -0 0 -1
vn 0 -1 0
vn 0.974886 0 0.222703
vn 0 -1 0
vn 0.900887 0 0.434053
vn 0 -1 0
vn 0.781785 0 0.623548
vn 0 -1 0
vn 0.623551 0 0.781782
vn 0 -1 0
vn 0.434057 0 0.900886
vn 0 -1 0
vn 0.222706 0 0.974886
vn 0 -1 0
vn -0 0 1
vn 0 -1 0
vn -0.222703 0 0.974886
vn 0 -1 0
vn -0.434053 0 0.900887
vn 0 -1 0
vn -0.623548 0 0.781785
vn 0 -1 0
vn -0.781782 0 0.623551
vn 0 -1 0
vn -0.900886 0 0.434057
vn 0 -1 0
vn -0.974886 0 0.222706
vn 0 -1 0
vn -1 0 -0
vn -0 0 -1
vn 0 -1 0
vn -1 0 -0
vn 0 1 0
vn -0 0 -1
vn -0.974886 0 0.222703
vn 0 1 0
vn -0.900887 0 0.434053
vn 0 1 0
vn -0.781785 0 0.623548
vn 0 1 0
vn -0.623551 0 0.781782
vn 0 1 0
vn -0.434057 0 0.900886
vn 0 1 0
vn -0.222706 0 0.974886
vn 0 1 0
#end 64 normals 

#begin 56 faces
usemtl MTL0
g 1
f 31/31/31 3/3/3 1/1/1 
f 51/51/51 2/2/2 4/4/4 
f 33/33/33 31/31/31 1/1/1 
f 63/63/63 33/33/33 1/1/1 
f 64/64/64 2/2/2 51/51/51 
f 29/29/29 5/5/5 3/3/3 
f 51/51/51 4/4/4 6/6/6 
f 31/31/31 29/29/29 3/3/3 
f 29/29/29 7/7/7 5/5/5 
f 51/51/51 6/6/6 8/8/8 
f 27/27/27 9/9/9 7/7/7 
f 51/51/51 8/8/8 10/10/10 
f 29/29/29 27/27/27 7/7/7 
f 25/25/25 11/11/11 9/9/9 
f 51/51/51 10/10/10 12/12/12 
f 27/27/27 25/25/25 9/9/9 
f 21/21/21 13/13/13 11/11/11 
f 51/51/51 12/12/12 14/14/14 
f 23/23/23 21/21/21 11/11/11 
f 25/25/25 23/23/23 11/11/11 
f 18/18/18 15/15/15 13/13/13 
f 51/51/51 14/14/14 16/16/16 
f 21/21/21 18/18/18 13/13/13 
f 48/48/48 17/17/17 19/19/19 
f 52/52/52 17/17/17 48/48/48 
f 24/24/24 20/20/20 22/22/22 
f 26/26/26 20/20/20 24/24/24 
f 28/28/28 20/20/20 26/26/26 
f 30/30/30 20/20/20 28/28/28 
f 32/32/32 20/20/20 30/30/30 
f 34/34/34 20/20/20 32/32/32 
f 36/36/36 20/20/20 34/34/34 
f 38/38/38 20/20/20 36/36/36 
f 40/40/40 20/20/20 38/38/38 
f 42/42/42 20/20/20 40/40/40 
f 44/44/44 20/20/20 42/42/42 
f 46/46/46 20/20/20 44/44/44 
f 49/49/49 20/20/20 46/46/46 
f 63/63/63 35/35/35 33/33/33 
f 61/61/61 37/37/37 35/35/35 
f 63/63/63 61/61/61 35/35/35 
f 61/61/61 39/39/39 37/37/37 
f 59/59/59 41/41/41 39/39/39 
f 61/61/61 59/59/59 39/39/39 
f 57/57/57 43/43/43 41/41/41 
f 59/59/59 57/57/57 41/41/41 
f 53/53/53 45/45/45 43/43/43 
f 55/55/55 53/53/53 43/43/43 
f 57/57/57 55/55/55 43/43/43 
f 50/50/50 47/47/47 45/45/45 
f 53/53/53 50/50/50 45/45/45 
f 56/56/56 51/51/51 54/54/54 
f 58/58/58 51/51/51 56/56/56 
f 60/60/60 51/51/51 58/58/58 
f 62/62/62 51/51/51 60/60/60 
f 64/64/64 51/51/51 62/62/62 
#end 56 faces

#begin properties
#U3DPROPERTIES_00 table {Mesh table {SymPlane table {Point vector3d 0 0 0  Normal vector3d 1 0 0  Threshold double 0.01 Enabled bool false } Maps table {Density table {PrimType string "Polygon" Size int 1 DefaultValue double 1 ScaleType string "Log" MinValue double 0.1 MaxValue double 4 Data doubles { r 56 1 } } Pin table {PrimType string "Vertex" Size int 1 DefaultValue double 0 ScaleType string "Normalized" MinValue double 0 MaxValue double 1 Data doubles { r 64 0 } } Protect table {PrimType string "Vertex" Size int 1 DefaultValue double 0 ScaleType string "Normalized" MinValue double -1 MaxValue double 1 Data doubles { r 64 0 } } } } }
#end properties

#begin 0 fatal error vertex (that Unfold3D cannot handle)
#end 0 fatal error vertex (that Unfold3D cannot handle)

#begin 0 error vertex
#end 0 error vertex
